<svg xmlns="http://www.w3.org/2000/svg" version="1.0" viewBox="0 0 750 750">
  <defs/>
  <path d="M355.5.6c-17.2 1-43.7 4.5-57 7.4-62.1 13.9-112.6 37.9-159.6 76-27.6 22.3-46.3 42.3-71.8 77-5.3 7.1-18.4 28.7-24.3 40C21 242.6 6.7 290.4 1.7 338.5c-1.3 13.4-1.6 55.1-.4 69 .7 8.6 1.3 12.7 3.8 28.2 5.1 31.9 15.2 65.4 27.9 92.8 10.3 22.4 17.1 34.7 29.5 53.5 18.7 28.4 46.8 60.1 69.5 78.6 1.9 1.6 3.7 3.1 4 3.5 1.3 1.5 22.3 17.1 29 21.6 40 26.5 81.8 44.5 128 55.2 9.8 2.2 29 5.4 43.5 7.2 13.3 1.6 64.2 1.7 76.5.1 18.7-2.5 24.6-3.4 34.5-5.4 8.6-1.7 13.8-3 30.5-7.4 5.4-1.4 17.9-5.4 25.5-8.2 80.1-29.3 147.9-85 192-157.7 8.8-14.6 12.7-22 22-42 13.7-29.6 25.4-71.3 29.5-105.5 2.5-20.9 3-29 3-47 0-21.8-1.7-40.7-5.5-63.5-11.9-69.4-44.5-136.4-91.5-188-43-47.2-97.6-83.1-157-103.2-7.4-2.5-14.8-4.9-16.5-5.4-1.6-.4-7.3-1.8-12.5-3.2-26.2-6.8-53.2-10.4-83.5-11-12.1-.3-24.7-.3-28-.1z"/>
</svg>